<svg xmlns="http://www.w3.org/2000/svg" viewBox="0 0 91.21 118.62"><defs><style>.cls-1{fill:#b3b3b3;}</style></defs><g id="Layer_2" data-name="Layer 2"><g id="Layer_1-2" data-name="Layer 1"><path class="cls-1" d="M63.85,45.65v-.89c0-5.71,0-11.43,0-17.15A18.24,18.24,0,0,0,27.5,25.28c-.07.7-.11,1.41-.13,2.11A4.56,4.56,0,0,1,22.77,32a4.51,4.51,0,0,1-4.51-4.65,25.88,25.88,0,0,1,6.26-17.26c7.48-8.68,17-11.94,28.07-9S70.18,11.49,72.52,22.63A26.66,26.66,0,0,1,73,27.85c0,5.71,0,11.43,0,17.14,0,.19,0,.39,0,.66H86.21c3.13,0,5,1.86,5,5v63c0,3.08-1.87,4.94-5,4.94H5a4.56,4.56,0,0,1-5-4.94v-63c0-3.13,1.88-5,5-5H63.85ZM9.14,54.78v54.67H82.07V54.78Z"/><path class="cls-1" d="M41.05,93.55c0-.73,0-1.46,0-2.18a1,1,0,0,0-.79-1.23,13.63,13.63,0,0,1,.41-25.31,13.12,13.12,0,0,1,8.55-.38,13.61,13.61,0,0,1,1.52,25.77.81.81,0,0,0-.61.9c0,1.56,0,3.11,0,4.67a4.55,4.55,0,1,1-9.09,0c0-.76,0-1.51,0-2.27Zm4.54-11.42a4.55,4.55,0,1,0-4.53-4.54A4.53,4.53,0,0,0,45.59,82.13Z"/></g></g></svg>