<svg xmlns="http://www.w3.org/2000/svg" viewBox="0 0 58 75.43"><defs><style>.cls-1{fill:#b3b3b3;}</style></defs><g id="Layer_2" data-name="Layer 2"><g id="Layer_1-2" data-name="Layer 1"><path class="cls-1" d="M40.6,29V17.56a11.59,11.59,0,0,0-23.11-1.48c0,.44-.07.89-.09,1.34a2.9,2.9,0,1,1-5.79-.05,16.44,16.44,0,0,1,4-11C20.35.88,26.4-1.2,33.44.67S44.63,7.3,46.12,14.39a17.51,17.51,0,0,1,.27,3.32c0,3.63,0,7.27,0,10.9,0,.12,0,.24,0,.42h8.4A2.92,2.92,0,0,1,58,32.2V72.29a2.91,2.91,0,0,1-3.16,3.14H3.16A2.91,2.91,0,0,1,0,72.28V32.2A2.92,2.92,0,0,1,3.18,29H40.6ZM5.81,34.84V69.6H52.19V34.84Z"/><path class="cls-1" d="M26.1,59.49c0-.47,0-.93,0-1.39a.66.66,0,0,0-.49-.78,8.67,8.67,0,0,1,.25-16.1A8.38,8.38,0,0,1,31.31,41a8.66,8.66,0,0,1,1,16.39.51.51,0,0,0-.39.57c0,1,0,2,0,3a2.89,2.89,0,1,1-5.78,0c0-.48,0-1,0-1.44ZM29,52.22a2.89,2.89,0,1,0-2.88-2.88A2.87,2.87,0,0,0,29,52.22Z"/></g></g></svg>