<svg xmlns="http://www.w3.org/2000/svg" viewBox="0 0 82.51 107.31"><defs><style>.cls-1{fill:#b3b3b3;}</style></defs><g id="Layer_2" data-name="Layer 2"><g id="Layer_1-2" data-name="Layer 1"><path class="cls-1" d="M57.76,41.3v-.81c0-5.17,0-10.34,0-15.51a16.5,16.5,0,0,0-32.88-2.11c-.07.63-.1,1.27-.12,1.91a4.13,4.13,0,0,1-4.16,4.14,4.08,4.08,0,0,1-4.08-4.21A23.4,23.4,0,0,1,22.18,9.1C29,1.25,37.56-1.7,47.58,1s15.91,9.44,18,19.52A23.94,23.94,0,0,1,66,25.19c.05,5.17,0,10.34,0,15.51,0,.18,0,.35,0,.6H78a4.15,4.15,0,0,1,4.52,4.52q0,28.5,0,57A4.13,4.13,0,0,1,78,107.31H4.49A4.13,4.13,0,0,1,0,102.84v-57A4.15,4.15,0,0,1,4.53,41.3H57.76ZM8.27,49.56V99h66V49.56Z"/><path class="cls-1" d="M37.14,84.63c0-.66,0-1.32,0-2a1,1,0,0,0-.71-1.11,12.33,12.33,0,0,1,.37-22.89,11.87,11.87,0,0,1,7.74-.35,12.32,12.32,0,0,1,1.37,23.32.73.73,0,0,0-.55.81c0,1.41,0,2.82,0,4.22a4.12,4.12,0,1,1-8.23,0c0-.68,0-1.37,0-2.05ZM41.25,74.3a4.12,4.12,0,1,0-4.11-4.11A4.1,4.1,0,0,0,41.25,74.3Z"/></g></g></svg>